<svg xmlns="http://www.w3.org/2000/svg" version="1.1" xmlns:xlink="http://www.w3.org/1999/xlink" width="63" height="40"><svg width="63" height="40" viewBox="0 0 63 40" fill="none" xmlns="http://www.w3.org/2000/svg">
<rect width="62" height="40" rx="20" fill="white"></rect>
<path d="M38.1718 12.6694C35.6641 12.6694 33.7195 11.9819 31.441 11.0718C29.3327 10.2141 27.2179 9.36288 24.2519 9.36288C21.6263 9.36288 19.6294 10.0504 17.6913 10.8492V14.2735C19.9174 13.3634 21.7966 12.6759 24.2519 12.6759C26.7072 12.6759 28.5339 13.3634 31.1529 14.4437C32.7505 15.1312 34.8588 15.9824 38.0016 15.9824C41.1444 15.9824 43.1348 15.1247 45.1318 14.2735V10.7902C41.5962 12.2765 40.1099 12.6759 38.1718 12.6759V12.6694Z" fill="#008CEB"></path>
<path d="M37.8838 19.9698C35.5987 19.9698 33.6607 19.2823 31.4345 18.3722C29.3262 17.5145 27.2114 16.6633 24.2454 16.6633C21.6198 16.6633 19.6229 17.3508 17.6848 18.1496V21.5739C19.9109 20.6638 21.7901 19.9763 24.2454 19.9763C26.7007 19.9763 28.5274 20.6638 31.1464 21.7441C32.744 22.4316 34.8523 23.2828 37.9362 23.2828C40.673 23.2828 42.67 22.5953 45.1253 21.6263V18.143C43.017 19.171 40.3915 19.9698 37.8772 19.9698H37.8838Z" fill="#008CEB"></path>
<path d="M45.1318 25.4502L44.2217 25.7906C42.1134 26.5894 40.2867 27.2769 38.0016 27.2769C35.7165 27.2769 33.6672 26.5894 31.441 25.6793C29.3327 24.8216 27.2179 23.9704 24.2519 23.9704C21.6263 23.9704 19.6294 24.6579 17.6913 25.4567V28.881C19.9174 27.9709 21.7966 27.2835 24.2519 27.2835C26.7072 27.2835 28.5339 27.9709 31.1529 29.0513C32.7505 29.7388 34.8588 30.5899 37.9427 30.5899C40.6795 30.5899 42.6765 29.9025 45.1318 28.9334V25.4502Z" fill="#008CEB"></path>
<path d="M42.9057 4.39991C51.4894 4.39991 58.4756 11.3861 58.4756 19.9698C58.4756 28.5536 51.4894 35.5397 42.9057 35.5397H19.9698C11.3861 35.5397 4.39991 28.5536 4.39991 19.9698C4.39991 11.3861 11.3861 4.39991 19.9698 4.39991H42.9057ZM42.9057 0H19.9698C8.95696 0 0 8.95695 0 19.9698C0 30.9827 8.95696 39.9396 19.9698 39.9396H42.9057C53.9185 39.9396 62.8755 30.9827 62.8755 19.9698C62.8755 8.95695 53.9185 0 42.9057 0Z" fill="#008CEB"></path>
</svg><style>@media (prefers-color-scheme: light) { :root { filter: none; } }
@media (prefers-color-scheme: dark) { :root { filter: none; } }
</style></svg>